<svg version="1.1" xmlns="http://www.w3.org/2000/svg" xmlns:xlink="http://www.w3.org/1999/xlink" width="88" height="90"><defs/><g><path fill="rgb(164,197,140)" stroke="none" paint-order="stroke fill markers" fill-rule="evenodd" d=" M 43.51161193847656 1.0623030066490173 C 44.89989471435547 1.0327540040016174 45.548431396484375 1.6704214811325073 46.44129943847656 2.136704742908478 C 47.94551086425781 2.921526253223419 49.46997833251953 3.618882715702057 50.933448791503906 4.38242894411087 C 54.949066162109375 6.478044211864471 59.02373504638672 8.250393390655518 63.04290008544922 10.33950787782669 C 64.5722885131836 11.134376049041748 66.15969848632812 11.867191314697266 67.73040008544922 12.683334767818451 C 68.1996078491211 12.926818549633026 68.79309844970703 13.402557492256165 69.29286193847656 13.562122106552124 C 74.56572723388672 13.562122106552124 79.84019470214844 13.562122106552124 85.11317443847656 13.562122106552124 C 85.3514404296875 13.840473711490631 85.68000030517578 13.925574839115143 85.89446258544922 14.245886027812958 C 86.38529968261719 14.868779003620148 86.18743133544922 16.490428268909454 86.18743133544922 17.56601196527481 C 86.18743133544922 20.430492281913757 86.18743133544922 23.295563578605652 86.18743133544922 26.1600438952446 C 86.18743133544922 37.32424807548523 86.18743133544922 48.49199813604355 86.18743133544922 59.65620231628418 C 86.18743133544922 62.780713856220245 86.18743133544922 65.9064073562622 86.18743133544922 69.03091889619827 C 86.18743133544922 70.51132392883301 86.39399719238281 72.04373520612717 85.5037612915039 72.64417093992233 C 84.69420623779297 73.28183841705322 82.15190124511719 72.93729704618454 80.8162612915039 72.93729704618454 C 76.71515655517578 72.93729704618454 72.61279296875 72.93729704618454 68.5115737915039 72.93729704618454 C 52.56262969970703 72.93729704618454 36.60899353027344 72.93729704618454 20.660049438476562 72.93729704618454 C 16.038124084472656 72.93729704618454 11.414825439453125 72.93729704618454 6.792900085449219 72.93729704618454 C 5.181571960449219 72.93729704618454 2.6200408935546875 73.28479331731796 2.0076675415039062 72.2535331249237 C 1.4766616821289062 71.35997128486633 1.81231689453125 69.03210085630417 1.8124313354492188 67.76149374246597 C 1.8124313354492188 63.98572218418121 1.8124313354492188 60.20876866579056 1.8124313354492188 56.433588087558746 C 1.8124313354492188 42.50241529941559 1.8124313354492188 28.567105650901794 1.8124313354492188 14.636523842811584 C 2.1742935180664062 14.264206409454346 2.5142974853515625 13.924392879009247 2.8865737915039062 13.562122106552124 C 8.159553527832031 13.562122106552124 13.43402099609375 13.562122106552124 18.706886291503906 13.562122106552124 C 19.0745849609375 13.442744135856628 19.5323486328125 13.059198081493378 19.878761291503906 12.87835818529129 C 20.996620178222656 12.296242833137512 22.12226104736328 11.779135286808014 23.19915008544922 11.218295216560364 C 26.51141357421875 9.493224442005157 29.888565063476562 7.941901803016663 33.16008758544922 6.238106310367584 C 35.5687255859375 4.983455657958984 38.0186767578125 3.857638657093048 40.386573791503906 2.624854266643524 C 41.35920715332031 2.11838436126709 42.74657440185547 1.801619052886963 43.51161193847656 1.0623030066490173 Z M 43.80458068847656 4.38242894411087 C 43.093788146972656 5.208028078079224 40.86528015136719 5.879381418228149 39.800636291503906 6.433129727840424 C 36.652137756347656 8.070735454559326 33.37683868408203 9.674655318260193 30.23040008544922 11.316397905349731 C 29.485275268554688 11.704671800136566 26.110755920410156 13.081655323505402 25.83586883544922 13.562122106552124 C 37.943946838378906 13.562122106552124 50.05580139160156 13.562122106552124 62.16399383544922 13.562122106552124 C 62.16399383544922 13.497114300727844 62.16399383544922 13.432106494903564 62.16399383544922 13.367098689079285 C 60.97621154785156 13.20930701494217 58.65306091308594 11.683987498283386 57.57411193847656 11.120783507823944 C 54.332801818847656 9.429398596286774 51.052467346191406 8.02227509021759 47.80852508544922 6.335618019104004 C 46.755897521972656 5.788370490074158 45.0279541015625 4.542584538459778 43.80458068847656 4.38242894411087 Z M 4.937355041503906 16.687224626541138 C 4.937355041503906 34.39357799291611 4.937355041503906 52.10584115982056 4.937355041503906 69.81219452619553 C 30.9764404296875 69.81219452619553 57.02330780029297 69.81219452619553 83.06239318847656 69.81219452619553 C 83.06239318847656 52.10584115982056 83.06239318847656 34.39357799291611 83.06239318847656 16.687224626541138 C 57.02330780029297 16.687224626541138 30.9764404296875 16.687224626541138 4.937355041503906 16.687224626541138 Z M 61.57805633544922 26.06194120645523 C 67.61298370361328 25.989841639995575 70.59405517578125 28.482004523277283 72.6131362915039 32.40965795516968 C 73.42887115478516 33.99643939733505 74.15923309326172 36.92947340011597 73.4920425415039 39.34362691640854 C 73.13029479980469 40.652647733688354 72.61542510986328 42.010128915309906 71.92958068847656 43.05439066886902 C 71.59266662597656 43.56736135482788 70.80062103271484 44.06555753946304 70.5623550415039 44.616941928863525 C 70.5623550415039 50.5734298825264 70.5623550415039 56.531690776348114 70.5623550415039 62.488178730010986 C 70.20049285888672 62.860496163368225 69.8603744506836 63.200309693813324 69.48821258544922 63.5619894862175 C 68.93660736083984 63.560216546058655 68.48422241210938 63.574991047382355 68.12098693847656 63.36696606874466 C 67.79551696777344 63.00883215665817 67.46993255615234 62.650698244571686 67.14446258544922 62.2925643324852 C 66.16793823242188 61.348769187927246 65.1911849975586 60.404383063316345 64.21477508544922 59.46058791875839 C 63.74293518066406 58.98898583650589 63.36974334716797 58.20002746582031 62.55458068847656 58.09365105628967 C 60.829498291015625 59.85122573375702 59.103843688964844 61.60939139127731 57.378761291503906 63.36696606874466 C 57.015296936035156 63.57380908727646 56.563255310058594 63.5619894862175 56.01165008544922 63.5619894862175 C 55.85498046875 63.37523978948593 55.841819763183594 63.50939226150513 55.620948791503906 63.36696606874466 C 55.32489013671875 63.176079511642456 55.182411193847656 62.73875427246094 54.93739318847656 62.488178730010986 C 54.93739318847656 56.531690776348114 54.93739318847656 50.5734298825264 54.93739318847656 44.616941928863525 C 52.79139709472656 43.1046239733696 50.86363983154297 37.64633220434189 52.20305633544922 33.874697506427765 C 53.063079833984375 31.45227026939392 54.48786926269531 29.385022044181824 56.40223693847656 28.015130281448364 C 57.30357360839844 27.3703710436821 58.521453857421875 26.843216836452484 59.62489318847656 26.452579021453857 C 60.21929931640625 26.24219012260437 61.085960388183594 26.385798275470734 61.57805633544922 26.06194120645523 Z M 15.386611938476562 29.187043726444244 C 25.086166381835938 29.187043726444244 34.78858184814453 29.187043726444244 44.488136291503906 29.187043726444244 C 44.71953582763672 29.43939220905304 45.19812774658203 29.571180760860443 45.367042541503906 29.870807647705078 C 45.817138671875 30.669221699237823 45.44348907470703 31.654976427555084 44.87883758544922 32.01902014017105 C 44.069740295410156 32.66318839788437 39.56763458251953 32.31214624643326 38.042823791503906 32.31214624643326 C 32.05390167236328 32.31214624643326 26.063034057617188 32.31214624643326 20.074111938476562 32.31214624643326 C 17.371246337890625 32.31214624643326 14.305030822753906 33.15015596151352 14.312355041503906 30.261445462703705 C 14.485275268554688 30.11783730983734 14.462043762207031 29.942907214164734 14.605323791503906 29.77329593896866 C 14.813835144042969 29.526266276836395 15.179588317871094 29.435255348682404 15.386611938476562 29.187043726444244 Z M 61.773292541503906 29.187043726444244 C 61.05723571777344 29.38265812397003 60.34095001220703 29.57768154144287 59.62489318847656 29.77329593896866 C 57.715789794921875 30.712363243103027 56.109954833984375 32.30564546585083 55.327980041503906 34.36284703016281 C 53.984100341796875 37.898680686950684 55.792152404785156 40.897904455661774 57.47649383544922 42.66375285387039 C 57.63922882080078 42.89187115430832 57.801963806152344 43.1193984746933 57.964698791503906 43.347516775131226 C 58.39900207519531 43.60991191864014 59.32105255126953 43.89831018447876 60.015480041503906 44.2263041138649 C 60.79161834716797 44.59271174669266 62.373077392578125 45.14409613609314 63.72645568847656 44.811965346336365 C 66.63817596435547 44.09865242242813 68.54647827148438 42.88359743356705 69.78118133544922 40.51554036140442 C 72.44536590576172 35.404153883457184 68.60930633544922 30.603031933307648 64.7029800415039 29.38265812397003 C 63.864471435546875 29.12026298046112 62.83026885986328 29.17640608549118 61.773292541503906 29.187043726444244 Z M 15.386611938476562 35.43724876642227 C 21.961471557617188 35.43724876642227 28.53827667236328 35.43724876642227 35.113136291503906 35.43724876642227 C 36.23442840576172 35.81015717983246 36.543304443359375 37.57541459798813 35.50383758544922 38.26922518014908 C 34.793731689453125 38.83892995119095 31.634475708007812 38.562351286411285 30.328018188476562 38.562351286411285 C 26.487266540527344 38.562351286411285 22.645370483398438 38.562351286411285 18.80461883544922 38.562351286411285 C 16.38568115234375 38.562351286411285 14.299652099609375 39.03986316919327 14.312355041503906 36.51165050268173 C 14.674331665039062 36.13933306932449 15.014335632324219 35.79892855882645 15.386611938476562 35.43724876642227 Z M 15.386611938476562 41.6874538064003 C 21.961471557617188 41.6874538064003 28.53827667236328 41.6874538064003 35.113136291503906 41.6874538064003 C 35.269805908203125 41.87420350313187 35.28285217285156 41.74005103111267 35.50383758544922 41.88247722387314 C 35.799896240234375 42.07336378097534 35.94237518310547 42.51068902015686 36.18739318847656 42.76126456260681 C 36.21966552734375 43.669600903987885 36.03083801269531 44.1807986497879 35.50383758544922 44.519430220127106 C 34.793731689453125 45.089134991168976 31.634475708007812 44.811965346336365 30.328018188476562 44.811965346336365 C 26.487266540527344 44.811965346336365 22.645370483398438 44.811965346336365 18.80461883544922 44.811965346336365 C 16.38568115234375 44.811965346336365 14.299652099609375 45.290068209171295 14.312355041503906 42.76126456260681 C 14.557601928710938 42.51068902015686 14.699851989746094 42.07395476102829 14.996025085449219 41.88247722387314 C 15.216323852539062 41.74005103111267 15.230056762695312 41.87361252307892 15.386611938476562 41.6874538064003 Z M 58.06243133544922 46.960768818855286 C 58.06243133544922 50.67094159126282 58.06243133544922 54.38288730382919 58.06243133544922 58.09365105628967 C 58.12743377685547 58.09365105628967 58.19255065917969 58.09365105628967 58.257667541503906 58.09365105628967 C 58.93229675292969 57.053526163101196 60.12122344970703 56.22969996929169 60.99211883544922 55.359186351299286 C 61.36393737792969 54.987459897994995 61.738616943359375 54.38466024398804 62.26161193847656 54.187272906303406 C 62.58708190917969 54.187272906303406 62.91266632080078 54.187272906303406 63.238136291503906 54.187272906303406 C 64.16121673583984 55.09147238731384 65.1570816040039 55.91057074069977 66.07020568847656 56.823634922504425 C 66.48448181152344 57.23850291967392 66.84016418457031 57.87912529706955 67.43743133544922 58.09365105628967 C 67.43743133544922 54.38288730382919 67.43743133544922 50.67094159126282 67.43743133544922 46.960768818855286 C 65.80252838134766 47.21607220172882 63.94286346435547 48.48549735546112 61.57805633544922 47.93706786632538 C 60.47736358642578 47.68176448345184 59.009429931640625 47.06596326828003 58.06243133544922 46.960768818855286 Z M 19.195205688476562 56.726123213768005 C 18.471023559570312 56.7125306725502 17.77350616455078 56.2113795876503 17.437393188476562 56.33548539876938 C 17.194778442382812 56.61915582418442 17.083656311035156 57.12562572956085 16.75383758544922 57.31237542629242 C 15.558387756347656 57.98845660686493 14.849655151367188 57.01333951950073 14.312355041503906 56.433588087558746 C 14.217140197753906 53.499963104724884 15.414764404296875 51.288515746593475 16.656105041503906 49.597130835056305 C 17.614662170410156 48.29106491804123 19.094497680664062 49.159805595874786 19.585792541503906 50.28089475631714 C 20.260536193847656 50.06695997714996 20.694496154785156 50.004316091537476 21.44133758544922 50.18338304758072 C 21.63165283203125 50.4688264131546 22.01422882080078 50.721765875816345 22.124893188476562 51.06217038631439 C 22.124893188476562 52.6247216463089 22.124893188476562 54.187272906303406 22.124893188476562 55.74982416629791 C 22.19001007080078 55.74982416629791 22.255126953125 55.74982416629791 22.32024383544922 55.74982416629791 C 22.32024383544922 55.68481636047363 22.32024383544922 55.619217574596405 22.32024383544922 55.554209768772125 C 22.826759338378906 54.857444286346436 22.663223266601562 53.983384788036346 23.394386291503906 53.50350898504257 C 23.682205200195312 53.26416206359863 24.023353576660156 53.20801895856857 24.566261291503906 53.210382878780365 C 25.061561584472656 53.65420889854431 25.424453735351562 53.72276258468628 25.738136291503906 54.382296323776245 C 26.226341247558594 54.057257294654846 26.71477508544922 53.7316272854805 27.202980041503906 53.40599727630615 C 27.66303253173828 53.204473078250885 28.194839477539062 53.186743676662445 28.667823791503906 53.015359461307526 C 28.90643310546875 52.373555123806 29.176284790039062 51.8712220788002 30.035049438476562 51.843446016311646 C 30.203506469726562 51.740615487098694 30.617210388183594 51.790848791599274 30.81633758544922 51.940957725048065 C 31.32422637939453 52.100522339344025 31.675674438476562 52.54848521947861 31.69524383544922 53.210382878780365 C 32.18150329589844 54.24577993154526 30.466835021972656 56.12568747997284 29.64446258544922 56.33548539876938 C 29.100181579589844 56.47436571121216 28.760292053222656 56.08018201589584 28.277236938476562 56.33548539876938 C 27.599632263183594 56.693619310855865 27.048599243164062 57.52749216556549 26.324073791503906 57.898036658763885 C 25.785171508789062 58.1740243434906 24.9888916015625 58.06173813343048 24.468643188476562 58.38618618249893 C 23.60564422607422 59.31343388557434 23.500244140625 60.460526168346405 21.636573791503906 60.43747794628143 C 21.49249267578125 60.26668471097946 21.31854248046875 60.286187052726746 21.14836883544922 60.144351840019226 C 20.231124877929688 59.37903267145157 19.392959594726562 58.1887988448143 19.195205688476562 56.726123213768005 Z"/></g></svg>