<svg version="1.1" xmlns="http://www.w3.org/2000/svg" xmlns:xlink="http://www.w3.org/1999/xlink" width="93" height="90"><defs/><g><path fill="rgb(164,197,140)" stroke="none" paint-order="stroke fill markers" fill-rule="evenodd" d=" M 59.57414245605469 1.2495467066764832 C 59.89961242675781 1.2495467066764832 60.225196838378906 1.2495467066764832 60.55066680908203 1.2495467066764832 C 60.70733642578125 1.4368873834609985 60.72038269042969 1.302734911441803 60.941253662109375 1.4451611042022705 C 61.2374267578125 1.6360476613044739 61.379791259765625 2.0733729004859924 61.62492370605469 2.3239484429359436 C 61.727691650390625 8.118507862091064 60.11705017089844 11.886005699634552 57.718597412109375 15.116893649101257 C 57.217918395996094 15.791201889514923 56.72227478027344 16.570704579353333 56.05851745605469 17.07008272409439 C 55.17011260986328 17.73789018392563 54.28502655029297 18.442338407039642 53.324066162109375 19.023271799087524 C 52.90589904785156 19.27562028169632 52.32637023925781 19.31935280561447 52.05457305908203 19.70644474029541 C 51.806922912597656 20.059850811958313 51.76652526855469 20.493039190769196 51.566253662109375 20.87835818529129 C 50.842872619628906 22.270707190036774 50.250755310058594 23.690241277217865 49.515472412109375 25.175374150276184 C 47.970176696777344 28.297521770000458 46.2923583984375 31.75948292016983 45.21867370605469 35.23385465145111 C 45.283790588378906 35.23385465145111 45.348907470703125 35.23385465145111 45.413909912109375 35.23385465145111 C 46.123558044433594 34.18072819709778 47.330909729003906 33.26293617486954 48.343597412109375 32.49998092651367 C 49.05473327636719 31.963962018489838 49.67454528808594 31.177367568016052 50.394378662109375 30.644303560256958 C 52.23619079589844 29.28032159805298 54.08635711669922 28.0788591504097 56.05851745605469 26.83543711900711 C 57.35719299316406 26.016929745674133 58.52368927001953 24.70968186855316 60.55066680908203 24.687224626541138 C 61.03669738769531 25.278204679489136 61.548362731933594 25.372761487960815 61.62492370605469 26.444799304008484 C 61.03040313720703 27.258578836917877 60.915618896484375 28.3436182141304 60.45304870605469 29.27677571773529 C 59.18653106689453 31.832764446735382 58.183570861816406 34.692516922950745 57.03504180908203 37.38265812397003 C 57.132659912109375 37.38265812397003 57.23039245605469 37.38265812397003 57.32801055908203 37.38265812397003 C 57.70806884765625 36.610247194767 59.42845916748047 35.58016896247864 60.16007995605469 35.03883123397827 C 62.32781982421875 33.43372941017151 64.2440185546875 31.371209025382996 66.41004180908203 29.765516221523285 C 67.13239288330078 29.22949731349945 69.24897766113281 27.91279375553131 69.53507995605469 27.128563225269318 C 69.69918823242188 26.69360190629959 69.22986602783203 25.271703898906708 69.43734741210938 24.39409852027893 C 69.82129669189453 22.771267294883728 70.22676086425781 21.32986694574356 70.99992370605469 20.097082555294037 C 72.36302947998047 17.924639880657196 74.6422348022461 16.33844941854477 77.34750366210938 15.507531464099884 C 81.17337799072266 14.332663118839264 85.77447509765625 16.911700069904327 87.21082305908203 18.827657401561737 C 88.01683044433594 19.903241097927094 88.88990020751953 21.16498351097107 89.35922241210938 22.539012134075165 C 91.56026458740234 28.98187667131424 86.21976470947266 34.154725074768066 81.74203491210938 35.4294690489769 C 79.98090362548828 35.9306201338768 78.16484069824219 35.29236167669296 76.56632995605469 35.23385465145111 C 75.88483428955078 36.097276508808136 74.08147430419922 36.83481961488724 73.63664245605469 37.77329593896866 C 75.26033020019531 37.77329593896866 77.09458923339844 38.35954815149307 78.51937866210938 38.74959498643875 C 82.34559631347656 39.79740262031555 87.53800964355469 40.60704529285431 89.35922241210938 43.53476047515869 C 89.94744873046875 44.48032855987549 89.74992370605469 46.41697019338608 89.74992370605469 47.929288148880005 C 89.74969482421875 52.93725311756134 90.19281005859375 55.04527896642685 86.62488555908203 56.71834349632263 C 86.71300506591797 61.024224162101746 85.3838882446289 64.87918704748154 84.08578491210938 67.94873744249344 C 80.16275024414062 77.22535133361816 73.0550537109375 86.00613296031952 62.699066162109375 88.74946236610413 C 56.90538024902344 88.74946236610413 51.10997772216797 88.74946236610413 45.31629180908203 88.74946236610413 C 39.978309631347656 88.74946236610413 34.63872528076172 88.74946236610413 29.300628662109375 88.74946236610413 C 28.020721435546875 88.36887121200562 26.5828857421875 87.96759575605392 25.39441680908203 87.3825255036354 C 16.981521606445312 83.24152827262878 10.748497009277344 75.886190533638 7.327972412109375 66.77682399749756 C 6.505943298339844 64.58783388137817 6.142478942871094 62.187863886356354 5.570159912109375 59.745934307575226 C 5.505157470703125 58.736540377140045 5.440040588378906 57.72773742675781 5.3749237060546875 56.71834349632263 C 5.1144561767578125 56.58832788467407 4.8539886474609375 56.45831227302551 4.593635559082031 56.327705681324005 C 3.89886474609375 55.840738117694855 3.089080810546875 55.1037859916687 2.640472412109375 54.37451660633087 C 1.8483123779296875 53.086771070957184 2.2497711181640625 48.90145033597946 2.2498855590820312 46.854886412620544 C 2.2498855590820312 46.00919395685196 2.2498855590820312 45.16231954097748 2.2498855590820312 44.316036105155945 C 2.6724014282226562 42.934324741363525 3.8584671020507812 42.193235754966736 4.984222412109375 41.48405969142914 C 8.442512512207031 39.30570721626282 13.045326232910156 38.69404286146164 17.679611206054688 37.57768154144287 C 19.3447265625 37.17699706554413 21.038681030273438 37.278645634651184 22.660079956054688 36.894508600234985 C 23.278060913085938 36.74794554710388 24.227577209472656 36.98138266801834 24.51551055908203 36.50387078523636 C 23.599411010742188 35.48797607421875 23.28343963623047 33.78418058156967 22.75769805908203 32.401878237724304 C 21.58673858642578 29.32405412197113 20.974021911621094 25.901097655296326 20.023361206054688 22.440909445285797 C 19.95824432373047 21.82274430990219 19.89312744140625 21.203988194465637 19.82801055908203 20.58582305908203 C 19.338890075683594 18.555806577205658 18.910194396972656 16.83960050344467 21.683441162109375 16.874468326568604 C 22.212501525878906 17.320658266544342 23.091751098632812 17.210144996643066 23.831954956054688 17.460720539093018 C 25.621124267578125 18.065884113311768 27.485595703125 18.75851273536682 29.105392456054688 19.60893303155899 C 35.26597595214844 22.84454882144928 39.46710205078125 27.72958993911743 41.019378662109375 35.62449246644974 C 41.247230529785156 35.62449246644974 41.475196838378906 35.62449246644974 41.70304870605469 35.62449246644974 C 44.36517333984375 30.883650481700897 42.12327575683594 23.878763914108276 40.433441162109375 19.999570846557617 C 33.775726318359375 19.802774488925934 29.145217895507812 16.358542740345 26.370941162109375 12.187405526638031 C 25.490203857421875 10.863019227981567 24.124923706054688 9.190545678138733 24.124923706054688 7.109113931655884 C 24.399925231933594 6.800031363964081 24.450164794921875 6.467900574207306 24.80847930908203 6.230326592922211 C 25.280548095703125 5.849144458770752 26.285110473632812 5.918880105018616 27.15222930908203 5.937200486660004 C 28.923202514648438 5.9744322299957275 30.786529541015625 6.311881840229034 32.230316162109375 6.718476116657257 C 37.01051330566406 8.064137697219849 40.636573791503906 9.91449624300003 42.28898620605469 14.335618019104004 C 42.59832000732422 15.16358107328415 42.67407989501953 16.200160086154938 42.87492370605469 17.07008272409439 C 42.87492370605469 17.428216636180878 42.87492370605469 17.786350548267365 42.87492370605469 18.14448446035385 C 43.40043640136719 19.462369978427887 44.297767639160156 20.90495228767395 44.827972412109375 22.343397736549377 C 45.07676696777344 23.01829695701599 45.35417175292969 25.47736495733261 45.80461120605469 25.761626362800598 C 45.883689880371094 25.2445188164711 46.198974609375 24.87279236316681 46.39054870605469 24.49161022901535 C 46.80390930175781 23.668965995311737 46.942840576171875 22.863460183143616 47.36707305908203 22.05027163028717 C 47.894874572753906 21.039104759693146 48.70820617675781 19.861872494220734 49.12488555908203 18.827657401561737 C 49.12488555908203 18.07947665452957 49.12488555908203 17.33011394739151 49.12488555908203 16.581933200359344 C 49.59077453613281 14.546006917953491 49.621788024902344 12.507125735282898 50.29676055908203 10.722365975379944 C 51.481109619140625 7.590762674808502 53.510032653808594 4.797790944576263 56.05851745605469 3.0077123641967773 C 56.65681457519531 2.5869345664978027 57.45183563232422 2.1230152249336243 58.10929870605469 1.8357989192008972 C 58.623138427734375 1.611226499080658 59.192481994628906 1.59290611743927 59.57414245605469 1.2495467066764832 Z M 58.10929870605469 5.351539254188538 C 57.54693603515625 6.186003088951111 56.376434326171875 6.5896424651145935 55.76554870605469 7.402240037918091 C 54.158226013183594 9.539223909378052 52.485557556152344 12.164357304573059 52.445159912109375 15.800657570362091 C 52.510276794433594 15.800657570362091 52.57539367675781 15.800657570362091 52.64051055908203 15.800657570362091 C 53.255287170410156 14.996333718299866 54.36833953857422 14.569055140018463 54.98426055908203 13.749956786632538 C 56.56812286376953 11.643703877925873 58.256011962890625 8.897419571876526 58.304534912109375 5.351539254188538 C 58.239532470703125 5.351539254188538 58.174415588378906 5.351539254188538 58.10929870605469 5.351539254188538 Z M 39.554534912109375 16.776956617832184 C 39.400840759277344 11.897234320640564 33.13062286376953 9.697015583515167 28.32410430908203 9.159814715385437 C 28.32410430908203 9.192318618297577 28.32410430908203 9.224822521209717 28.32410430908203 9.257326424121857 C 28.291603088378906 9.257326424121857 28.258987426757812 9.257326424121857 28.226486206054688 9.257326424121857 C 28.226486206054688 9.322334229946136 28.226486206054688 9.387933015823364 28.226486206054688 9.452940821647644 C 28.53753662109375 9.702925384044647 28.577590942382812 10.098882019519806 28.812423706054688 10.429239869117737 C 29.28266143798828 11.091728508472443 29.873062133789062 11.717576384544373 30.37488555908203 12.38242894411087 C 31.831260681152344 14.311978816986084 36.273284912109375 16.622710824012756 39.554534912109375 16.776956617832184 Z M 76.46859741210938 19.023271799087524 C 76.6325912475586 20.032665729522705 77.36959075927734 20.909089148044586 77.83582305908203 21.659633815288544 C 79.3066177368164 24.027690887451172 80.71057891845703 25.697800517082214 83.01164245605469 27.226074934005737 C 83.50408172607422 27.553477883338928 85.49134826660156 28.995469212532043 85.94132995605469 28.593602776527405 C 86.85308074951172 27.471922636032104 86.74527740478516 24.634036421775818 86.23429870605469 23.22218507528305 C 85.26063537597656 20.53322583436966 83.97969818115234 19.39086139202118 81.05847930908203 18.632633984088898 C 80.52930450439453 18.494935631752014 79.32435607910156 18.238450288772583 78.51937866210938 18.43701958656311 C 77.85470581054688 18.601312041282654 77.15089416503906 18.91275852918625 76.46859741210938 19.023271799087524 Z M 22.953048706054688 20.58582305908203 C 22.984405517578125 22.47814118862152 23.81696319580078 25.298888981342316 24.320159912109375 26.93353980779648 C 25.919815063476562 32.130027413368225 27.31633758544922 37.015659511089325 30.96082305908203 40.11712282896042 C 31.570220947265625 40.63541233539581 32.11164093017578 41.47401303052902 32.816253662109375 41.874697506427765 C 33.24346160888672 42.11759030818939 33.745513916015625 42.039580941200256 34.18347930908203 42.26533532142639 C 34.716087341308594 42.53955006599426 35.09614562988281 43.0607944726944 35.745941162109375 43.241634368896484 C 35.745941162109375 43.176626563072205 35.745941162109375 43.111618757247925 35.745941162109375 43.046610951423645 C 35.07440185546875 42.196781635284424 34.81084442138672 40.99000036716461 34.281097412109375 40.01902014017105 C 33.07775115966797 37.81407356262207 31.634193420410156 35.602035224437714 30.179534912109375 33.573791682720184 C 29.30921173095703 32.360509634017944 27.25316619873047 30.751861929893494 27.249847412109375 28.886137902736664 C 27.85626983642578 28.233104944229126 27.954116821289062 27.78927892446518 29.300628662109375 27.81232714653015 C 31.89019775390625 30.41382133960724 34.05278778076172 33.608659505844116 36.038909912109375 36.79640591144562 C 36.47264099121094 37.49258041381836 37.688690185546875 40.422659516334534 38.18742370605469 40.702784061431885 C 38.18742370605469 39.72648501396179 38.18742370605469 38.74959498643875 38.18742370605469 37.77329593896866 C 37.92089080810547 37.33597069978714 38.138671875 36.70066714286804 37.99207305908203 36.11323297023773 C 37.59679412841797 34.5282244682312 37.30073547363281 32.79783487319946 36.624847412109375 31.42557919025421 C 34.550262451171875 27.21307337284088 31.487823486328125 24.505793750286102 27.347579956054688 22.343397736549377 C 26.133819580078125 21.709276139736176 24.59344482421875 20.675652027130127 22.953048706054688 20.58582305908203 Z M 83.59757995605469 31.132453083992004 C 82.59210205078125 30.94806730747223 81.77693939208984 30.172110497951508 81.05847930908203 29.667413532733917 C 79.14285278320312 28.32352489233017 77.43138885498047 26.77338421344757 76.07801055908203 24.882248044013977 C 75.6133804321289 24.233351945877075 74.3609390258789 21.43033355474472 73.73426055908203 21.268996000289917 C 73.44518280029297 22.296119332313538 72.85569763183594 23.215093314647675 72.56238555908203 24.49161022901535 C 72.37950897216797 25.287660360336304 72.61571502685547 26.40165776014328 72.75773620605469 26.93353980779648 C 73.53227233886719 29.833478927612305 74.64967346191406 31.147227585315704 77.34750366210938 32.109343111515045 C 78.05863952636719 32.36228257417679 79.43021392822266 32.767694890499115 80.57015991210938 32.49998092651367 C 81.71319580078125 32.23108500242233 82.63032531738281 31.70333981513977 83.59757995605469 31.42557919025421 C 83.59757995605469 31.32806748151779 83.59757995605469 31.229964792728424 83.59757995605469 31.132453083992004 Z M 56.35148620605469 30.25366574525833 C 55.384803771972656 31.236465573310852 53.96619415283203 31.884770691394806 52.83586120605469 32.69500434398651 C 50.04682159423828 34.69488084316254 47.19941711425781 37.58122742176056 45.21867370605469 40.40965795516968 C 44.08856964111328 42.02362447977066 42.91852569580078 43.75578701496124 42.87492370605469 46.464839577674866 C 42.90742492675781 46.464839577674866 42.940040588378906 46.464839577674866 42.97254180908203 46.464839577674866 C 42.97254180908203 46.497343480587006 42.97254180908203 46.529847383499146 42.97254180908203 46.562351286411285 C 50.594879150390625 45.10617643594742 51.74787139892578 41.71926975250244 54.39832305908203 35.4294690489769 C 55.090576171875 33.786544501781464 56.08106231689453 32.00710356235504 56.546722412109375 30.25366574525833 C 56.481719970703125 30.25366574525833 56.416603088378906 30.25366574525833 56.35148620605469 30.25366574525833 Z M 44.43738555908203 51.24941408634186 C 46.15972137451172 51.270689368247986 48.366485595703125 51.486397087574005 49.90617370605469 51.15190237760544 C 50.59087371826172 51.00356638431549 51.517845153808594 51.34397089481354 52.05457305908203 51.05439066886902 C 52.329803466796875 50.90605467557907 52.580772399902344 50.462228655815125 52.83586120605469 50.273115038871765 C 54.018951416015625 49.39550966024399 55.09492492675781 48.398526310920715 56.253753662109375 47.53865033388138 C 59.654937744140625 45.01516550779343 62.80778503417969 42.24760591983795 66.21469116210938 39.72648501396179 C 66.61637878417969 39.42922204732895 67.7061996459961 38.64026367664337 67.97250366210938 38.261445462703705 C 68.18822479248047 37.954726815223694 68.24349975585938 37.57236272096634 68.55844116210938 37.38265812397003 C 68.90176391601562 37.175224125385284 69.31684112548828 37.21127390861511 69.63269805908203 36.992020308971405 C 70.50176239013672 36.38803869485855 71.22480010986328 35.47674745321274 72.07406616210938 34.843216836452484 C 72.56330108642578 34.47858214378357 73.41073608398438 34.07789766788483 73.63664245605469 33.476279973983765 C 72.65279388427734 33.13587546348572 71.25226593017578 31.292017698287964 70.80457305908203 30.35117745399475 C 69.31306457519531 31.2222820520401 68.16442108154297 32.65954554080963 66.80062866210938 33.671303391456604 C 62.69197082519531 36.720169484615326 58.98145294189453 40.18449455499649 54.88664245605469 43.241634368896484 C 53.22381591796875 44.48328346014023 51.87135314941406 46.234948337078094 50.101409912109375 47.34362691640854 C 48.31006622314453 48.46530705690384 46.398902893066406 48.773207664489746 44.242034912109375 49.58935111761093 C 44.40797424316406 50.051497519016266 44.44184875488281 50.586334466934204 44.43738555908203 51.24941408634186 Z M 25.199066162109375 39.72648501396179 C 24.733177185058594 40.00129073858261 24.069305419921875 39.77435439825058 23.441253662109375 39.92150843143463 C 22.09966278076172 40.235909819602966 20.58789825439453 40.15435457229614 19.144454956054688 40.507760643959045 C 15.802207946777344 41.325677037239075 12.314849853515625 41.768321096897125 9.378753662109375 42.85099655389786 C 8.198295593261719 43.28654885292053 5.857521057128906 43.70141685009003 5.472541809082031 44.80418562889099 C 5.065704345703125 45.55354833602905 8.284927368164062 47.276846170425415 9.476486206054688 46.95298910140991 C 11.830535888671875 46.31295770406723 14.608818054199219 45.99146455526352 17.19129180908203 45.390437841415405 C 17.516761779785156 45.390437841415405 17.84234619140625 45.390437841415405 18.167816162109375 45.390437841415405 C 19.906402587890625 44.98857140541077 22.086044311523438 45.01221060752869 23.831954956054688 44.60916221141815 C 24.189926147460938 44.60916221141815 24.548126220703125 44.60916221141815 24.906097412109375 44.60916221141815 C 26.06366729736328 44.34322118759155 27.59088134765625 44.289442002773285 28.714691162109375 44.02290999889374 C 29.386917114257812 43.863936364650726 29.90544891357422 44.144651889801025 30.277267456054688 43.73037487268448 C 28.99884796142578 42.9709655046463 27.234512329101562 41.013048589229584 26.468673706054688 39.72648501396179 C 26.04547119140625 39.72648501396179 25.622268676757812 39.72648501396179 25.199066162109375 39.72648501396179 Z M 70.31625366210938 40.40965795516968 C 69.746337890625 40.97936272621155 69.01780700683594 41.39009386301041 68.36320495605469 41.874697506427765 C 67.75300598144531 42.326206266880035 67.21501922607422 42.984558045864105 66.60539245605469 43.43724876642227 C 66.19672393798828 43.740421533584595 65.65953826904297 43.935444951057434 65.43351745605469 44.413547813892365 C 65.79148864746094 44.413547813892365 66.14968872070312 44.413547813892365 66.50765991210938 44.413547813892365 C 67.3315200805664 44.91765379905701 70.29096221923828 44.711401760578156 71.48812866210938 44.99980002641678 C 73.69088745117188 45.53050011396408 76.10753631591797 45.544092655181885 78.32414245605469 46.17171347141266 C 79.51272583007812 46.50798112154007 80.96589660644531 46.98549300432205 82.13273620605469 47.24552422761917 C 83.22038269042969 47.4884170293808 86.5276107788086 45.72847843170166 86.62488555908203 44.80418562889099 C 86.39703369140625 44.54415440559387 86.16918182373047 44.283532202243805 85.94132995605469 44.02290999889374 C 84.50360870361328 43.14294070005417 82.84558868408203 43.03715527057648 81.05847930908203 42.46035873889923 C 77.84772491455078 41.42496168613434 73.98042297363281 40.871213376522064 70.31625366210938 40.40965795516968 Z M 61.91789245605469 47.14801251888275 C 61.36170959472656 47.67398476600647 60.68353271484375 48.05575788021088 60.062347412109375 48.51554036140442 C 59.620033264160156 48.84294331073761 59.23493957519531 49.35945987701416 58.79285430908203 49.6874538064003 C 58.32582092285156 50.033768117427826 57.58515930175781 50.31802952289581 57.32801055908203 50.85936725139618 C 58.011566162109375 50.85936725139618 58.69523620605469 50.85936725139618 59.37879180908203 50.85936725139618 C 60.19361114501953 50.37121772766113 63.34130859375 50.73762536048889 64.55461120605469 50.46872943639755 C 65.72190856933594 50.20928919315338 67.08238220214844 50.37180870771408 68.36320495605469 50.078091621398926 C 70.5937728881836 49.56630289554596 73.07862854003906 49.45047080516815 75.29672241210938 49.003689885139465 C 75.29672241210938 48.971185982227325 75.29672241210938 48.938682079315186 75.29672241210938 48.906178176403046 C 75.19910430908203 48.873674273490906 75.10148620605469 48.84057939052582 75.00375366210938 48.80807548761368 C 74.22750091552734 48.33765536546707 72.71722412109375 48.56518268585205 71.68347930908203 48.31992596387863 C 69.4511947631836 47.78981685638428 66.69843292236328 47.858370542526245 64.35926055908203 47.34362691640854 C 63.48893737792969 47.15155839920044 62.630516052246094 47.39090532064438 61.91789245605469 47.14801251888275 Z M 24.124923706054688 47.734264731407166 C 23.665443420410156 48.01970809698105 23.007522583007812 47.7839070558548 22.367111206054688 47.929288148880005 C 20.534339904785156 48.34652006626129 18.01995849609375 48.687515556812286 16.01941680908203 48.71056377887726 C 16.01941680908203 48.77557158470154 16.01941680908203 48.84057939052582 16.01941680908203 48.906178176403046 C 18.20020294189453 49.231217205524445 20.381561279296875 49.55684721469879 22.562347412109375 49.88247722387314 C 23.107315063476562 49.07401651144028 24.54045867919922 48.48244547843933 24.906097412109375 47.734264731407166 C 24.64574432373047 47.734264731407166 24.385276794433594 47.734264731407166 24.124923706054688 47.734264731407166 Z M 32.816253662109375 48.31992596387863 C 32.487579345703125 48.528541922569275 32.11530303955078 48.392616510391235 31.644378662109375 48.51554036140442 C 30.559707641601562 48.79802882671356 29.33953857421875 49.05155926942825 28.32410430908203 49.49183940887451 C 26.012855529785156 50.494141578674316 24.145980834960938 52.15597748756409 23.148284912109375 54.47261929512024 C 22.84307098388672 55.18120437860489 22.951332092285156 55.793459713459015 22.75769805908203 56.62083178758621 C 22.583518981933594 57.36487567424774 22.318817138671875 59.01311904191971 22.562347412109375 60.03906041383743 C 22.757583618164062 60.8611136674881 22.9244384765625 62.019434571266174 23.148284912109375 62.77293413877487 C 23.576980590820312 64.21669840812683 23.810440063476562 65.4672122001648 24.320159912109375 66.67931228876114 C 24.524208068847656 67.16450691223145 24.451995849609375 67.71470934152603 24.906097412109375 67.94873744249344 C 25.364776611328125 66.49433553218842 26.6268310546875 65.2160456776619 27.44519805908203 64.04295027256012 C 29.841934204101562 60.60581028461456 32.25938415527344 57.192309498786926 35.64832305908203 54.7651544213295 C 36.47401428222656 54.1741743683815 37.603546142578125 53.567237854003906 38.57801055908203 53.20260316133499 C 39.27323913574219 52.94257193803787 39.87165069580078 52.90120333433151 40.433441162109375 52.519430220127106 C 40.726409912109375 52.16129630804062 41.019493103027344 51.80316239595413 41.312347412109375 51.445028483867645 C 41.36693572998047 50.3068009018898 41.03929138183594 48.67215007543564 40.04285430908203 48.61305207014084 C 39.224143981933594 49.257811307907104 37.25083923339844 49.74005103111267 36.23426055908203 50.273115038871765 C 33.908363342285156 51.49289786815643 31.464820861816406 53.26820194721222 29.984298706054688 55.35140663385391 C 28.982711791992188 56.76030308008194 29.14281463623047 59.043850004673004 26.761642456054688 59.06217038631439 C 26.161972045898438 58.379588425159454 25.668045043945312 58.414456248283386 25.68738555908203 57.01146960258484 C 26.17810821533203 56.45358443260193 26.27149200439453 55.507425367832184 26.663909912109375 54.863257110118866 C 27.15314483642578 54.05952423810959 27.756935119628906 53.27470272779465 28.32410430908203 52.519430220127106 C 28.898597717285156 51.75411105155945 30.557647705078125 50.25597661733627 31.351409912109375 49.6874538064003 C 31.930938720703125 49.271994829177856 32.98162078857422 48.96586716175079 33.30457305908203 48.31992596387863 C 33.14183807373047 48.31992596387863 32.97898864746094 48.31992596387863 32.816253662109375 48.31992596387863 Z M 5.3749237060546875 48.906178176403046 C 5.364280700683594 50.287889540195465 5.234733581542969 51.988139152526855 5.472541809082031 53.20260316133499 C 7.516571044921875 54.35678720474243 9.666458129882812 55.08664757013321 12.113204956054688 55.93706786632538 C 13.298698425292969 56.34898096323013 14.607101440429688 56.39685034751892 15.726448059082031 56.71834349632263 C 16.182151794433594 56.84954106807709 19.319778442382812 57.22363144159317 19.339691162109375 57.20649302005768 C 19.694801330566406 56.78157836198807 19.455162048339844 56.20773673057556 19.632659912109375 55.54643005132675 C 19.877334594726562 54.63572978973389 20.294586181640625 53.70730012655258 20.511566162109375 52.811965346336365 C 20.47906494140625 52.811965346336365 20.446449279785156 52.811965346336365 20.41394805908203 52.811965346336365 C 20.41394805908203 52.779461443424225 20.41394805908203 52.746957540512085 20.41394805908203 52.714453637599945 C 18.996482849121094 52.68845051527023 17.527633666992188 52.34922796487808 16.31238555908203 52.03068971633911 C 15.759063720703125 51.96568191051483 15.205513000488281 51.90067410469055 14.652191162109375 51.83566629886627 C 12.617546081542969 51.28428190946579 10.430809020996094 50.990564823150635 8.499847412109375 50.273115038871765 C 7.472969055175781 49.891932904720306 6.4339599609375 49.12011295557022 5.3749237060546875 48.906178176403046 Z M 86.42953491210938 48.906178176403046 C 86.05931854248047 49.24362778663635 85.65728759765625 49.24480974674225 85.16004180908203 49.49183940887451 C 83.18021392822266 50.47523021697998 80.66560363769531 50.96160680055618 78.32414245605469 51.640051901340485 C 77.72870635986328 51.81320905685425 77.3796615600586 51.67314678430557 76.76156616210938 51.83566629886627 C 74.77052307128906 52.35868364572525 72.3021469116211 52.50406473875046 70.21863555908203 53.00757974386215 C 69.27472686767578 53.07258754968643 68.33047485351562 53.13759535551071 67.38656616210938 53.20260316133499 C 65.93648529052734 53.540643751621246 63.9803466796875 53.4514057636261 62.50382995605469 53.788855373859406 C 61.88539123535156 53.788855373859406 61.2667236328125 53.788855373859406 60.648284912109375 53.788855373859406 C 59.79192352294922 53.97915095090866 58.513275146484375 53.880457282066345 57.62097930908203 54.08198148012161 C 57.002540588378906 54.08198148012161 56.38398742675781 54.08198148012161 55.76554870605469 54.08198148012161 C 54.972129821777344 54.25750255584717 53.749900817871094 53.97737801074982 52.83586120605469 54.17949318885803 C 50.194679260253906 54.763381481170654 45.81170654296875 54.37156170606613 42.777191162109375 54.37451660633087 C 41.87848663330078 55.49442380666733 40.54570770263672 55.64689666032791 39.16394805908203 56.327705681324005 C 38.427406311035156 56.691158413887024 37.75025939941406 57.23545104265213 37.11316680908203 57.69523352384567 C 36.65460205078125 58.0255913734436 35.954795837402344 58.30098807811737 35.745941162109375 58.86714696884155 C 36.6573486328125 58.86714696884155 37.56898498535156 58.86714696884155 38.48039245605469 58.86714696884155 C 39.134765625 59.27551418542862 40.55680847167969 58.78440976142883 41.41007995605469 58.96465867757797 C 42.286354064941406 59.149635434150696 43.592926025390625 59.06217038631439 44.63273620605469 59.06217038631439 C 46.55305480957031 59.06217038631439 48.47406005859375 59.06217038631439 50.394378662109375 59.06217038631439 C 51.24822235107422 59.05153274536133 52.61304473876953 59.0450319647789 53.42179870605469 58.86714696884155 C 55.0045166015625 58.517877757549286 56.800209045410156 58.98238807916641 58.20691680908203 58.671532571315765 C 59.20323944091797 58.45168799161911 60.31079864501953 58.659712970256805 61.13660430908203 58.476509153842926 C 61.68992614746094 58.476509153842926 62.24347686767578 58.476509153842926 62.79679870605469 58.476509153842926 C 64.2656478881836 58.14674228429794 66.15129089355469 58.22120577096939 67.58191680908203 57.89025694131851 C 68.98839569091797 57.56521791219711 70.31167602539062 57.833522856235504 71.68347930908203 57.499619126319885 C 74.17817687988281 56.89327359199524 76.98346710205078 56.637379229068756 79.30066680908203 55.93706786632538 C 79.7966537475586 55.787549912929535 80.0749740600586 55.893926322460175 80.57015991210938 55.74204444885254 C 82.11396789550781 55.268078446388245 83.73056030273438 54.65050429105759 85.06242370605469 53.983878791332245 C 85.65099334716797 53.68957072496414 86.2939224243164 53.641701340675354 86.52726745605469 53.00757974386215 C 86.8414077758789 52.51233845949173 86.63587188720703 49.73532319068909 86.62488555908203 48.906178176403046 C 86.55976867675781 48.906178176403046 86.4946517944336 48.906178176403046 86.42953491210938 48.906178176403046 Z M 8.695198059082031 58.0858713388443 C 8.35015869140625 59.159091114997864 8.992401123046875 61.236976981163025 9.281135559082031 62.187272906303406 C 9.698043823242188 63.55893760919571 9.775749206542969 64.72907811403275 10.257659912109375 65.9955483675003 C 10.995231628417969 67.93337196111679 12.049919128417969 69.76895600557327 12.992111206054688 71.46447777748108 C 16.585670471191406 77.93157249689102 21.98979949951172 83.2947164773941 29.691329956054688 85.62495082616806 C 35.777870178222656 85.62495082616806 41.866355895996094 85.62495082616806 47.95301055908203 85.62495082616806 C 52.7376708984375 85.62495082616806 57.52381896972656 85.62495082616806 62.30847930908203 85.62495082616806 C 70.79724884033203 83.03645819425583 76.36766052246094 76.9044491648674 80.08195495605469 69.51128870248795 C 81.69351196289062 66.30403995513916 83.07115173339844 62.677786350250244 83.40222930908203 58.18338304758072 C 83.3697280883789 58.18338304758072 83.33711242675781 58.18338304758072 83.30461120605469 58.18338304758072 C 83.30461120605469 58.15087914466858 83.30461120605469 58.11837524175644 83.30461120605469 58.0858713388443 C 80.64317321777344 59.20164167881012 77.33319854736328 59.49299484491348 74.32019805908203 60.23408383131027 C 73.12039947509766 60.52898287773132 72.12041473388672 60.33809632062912 70.90219116210938 60.6247216463089 C 68.40989685058594 61.21097385883331 65.38968658447266 61.015950441360474 62.79679870605469 61.60102069377899 C 62.275978088378906 61.60102069377899 61.755043029785156 61.60102069377899 61.234222412109375 61.60102069377899 C 59.829917907714844 61.91128522157669 57.9287109375 61.85632407665253 56.44910430908203 61.99165850877762 C 55.602813720703125 61.99165850877762 54.75629425048828 61.99165850877762 53.910003662109375 61.99165850877762 C 52.181373596191406 62.370476722717285 49.45355987548828 62.187272906303406 47.464691162109375 62.187272906303406 C 44.37261199951172 62.154769003391266 41.279502868652344 62.122265100479126 38.18742370605469 62.089761197566986 C 37.425018310546875 61.92133188247681 36.238609313964844 62.18668192625046 35.35535430908203 61.99165850877762 C 34.60462188720703 61.82618409395218 33.72205352783203 61.79840803146362 32.816253662109375 61.79663509130478 C 32.26567840576172 62.756977677345276 31.39318084716797 63.54298114776611 30.765472412109375 64.43358808755875 C 29.823623657226562 65.76920300722122 29.10070037841797 67.13023006916046 28.226486206054688 68.53498965501785 C 27.895294189453125 69.06687170267105 27.36028289794922 69.64307725429535 27.054611206054688 70.19505262374878 C 26.335350036621094 71.49343580007553 26.19195556640625 73.14581602811813 24.124923706054688 73.124540746212 C 22.177597045898438 71.15362226963043 21.176467895507812 67.39558011293411 20.218597412109375 64.43358808755875 C 19.935928344726562 63.55893760919571 19.926315307617188 61.133555471897125 19.53504180908203 60.52720993757248 C 19.53504180908203 60.49470603466034 19.53504180908203 60.4622021317482 19.53504180908203 60.42910724878311 C 17.517677307128906 60.42378842830658 14.923072814941406 59.75361704826355 13.187347412109375 59.25778478384018 C 11.5902099609375 58.80095720291138 10.063224792480469 58.71940195560455 8.695198059082031 58.0858713388443 Z M 72.07406616210938 63.74982416629791 C 72.39965057373047 63.74982416629791 72.72523498535156 63.74982416629791 73.05070495605469 63.74982416629791 C 73.20726013183594 63.93657386302948 73.22042083740234 63.802421391010284 73.44129180908203 63.94484758377075 C 73.73735046386719 64.13573414087296 73.87982940673828 64.57365036010742 74.12484741210938 64.82363492250443 C 74.1595230102539 66.7797788977623 73.17578887939453 68.9333102107048 72.56238555908203 70.39007604122162 C 70.50828552246094 75.26920735836029 68.45040893554688 78.99474561214447 63.870941162109375 81.32793486118317 C 62.655006408691406 81.94728195667267 59.911399841308594 82.99745351076126 57.718597412109375 82.49984830617905 C 55.56928253173828 82.011698782444 53.60845184326172 81.62401586771011 51.859222412109375 80.74168264865875 C 51.266876220703125 80.44323772192001 50.62486267089844 79.77306634187698 50.00379180908203 79.56976920366287 C 49.28773498535156 79.56976920366287 48.571449279785156 79.56976920366287 47.85539245605469 79.56976920366287 C 45.06543731689453 78.94687622785568 39.70960235595703 78.9841079711914 39.74988555908203 75.76149374246597 C 40.35630798339844 75.10786980390549 40.45415496826172 74.66463476419449 41.80066680908203 74.68709200620651 C 42.780853271484375 75.82945644855499 47.79267883300781 76.78152531385422 50.101409912109375 76.34715497493744 C 50.63653564453125 74.90989148616791 53.07012176513672 73.4223946928978 54.30070495605469 72.53887951374054 C 58.08148956298828 69.82450813055038 62.50703430175781 67.74662226438522 66.99597930908203 65.70301324129105 C 68.3257827758789 65.09725868701935 69.7265396118164 64.69184637069702 70.99992370605469 64.14046198129654 C 71.4397201538086 63.949575424194336 71.76656341552734 64.03290361166 72.07406616210938 63.74982416629791 Z M 70.02328491210938 67.85122573375702 C 69.1772232055664 68.57103943824768 67.73160552978516 68.70460093021393 66.70301055908203 69.21816259622574 C 63.881927490234375 70.62824100255966 60.96906280517578 71.91598653793335 58.40226745605469 73.51517856121063 C 57.37046813964844 74.15816485881805 55.85950469970703 74.68413710594177 55.17961120605469 75.66398203372955 C 55.34234619140625 75.66398203372955 55.50508117675781 75.66398203372955 55.667816162109375 75.66398203372955 C 56.07762908935547 75.35726338624954 56.66242218017578 75.4441374540329 57.23039245605469 75.27334421873093 C 58.427330017089844 74.91284638643265 59.37696075439453 74.39928472042084 60.84363555908203 74.49206858873367 C 61.05168914794922 74.76805627346039 61.37498474121094 75.11732548475266 61.62492370605469 75.37085592746735 C 61.65570831298828 76.07057631015778 61.58612823486328 76.33297145366669 61.42957305908203 76.93340718746185 C 59.9300537109375 77.84351646900177 57.79481506347656 78.32812011241913 55.86316680908203 78.78849357366562 C 55.86316680908203 78.85409235954285 55.86316680908203 78.91910016536713 55.86316680908203 78.9841079711914 C 56.58586120605469 79.0172028541565 57.290130615234375 79.2092713713646 57.91394805908203 79.37474578619003 C 59.094520568847656 79.68796521425247 60.752197265625 79.25418585538864 61.527191162109375 78.9841079711914 C 65.0877914428711 77.74364084005356 66.75347900390625 75.59779226779938 68.36320495605469 72.44136780500412 C 68.86937713623047 71.44852131605148 69.36982727050781 70.28074473142624 69.82804870605469 69.21816259622574 C 69.95416259765625 68.92621845006943 70.21577453613281 68.06220561265945 70.12101745605469 67.94873744249344 C 70.12101745605469 67.9162335395813 70.12101745605469 67.88372963666916 70.12101745605469 67.85122573375702 C 70.0884017944336 67.85122573375702 70.05590057373047 67.85122573375702 70.02328491210938 67.85122573375702 Z"/></g></svg>