<svg version="1.1" xmlns="http://www.w3.org/2000/svg" xmlns:xlink="http://www.w3.org/1999/xlink" width="103" height="90"><defs/><g><path fill="rgb(164,197,140)" stroke="none" paint-order="stroke fill markers" fill-rule="evenodd" d=" M 26.17047119140625 1.7106698751449585 C 31.162841796875 1.6314785480499268 36.34541320800781 1.7573572993278503 40.43793487548828 2.783889651298523 C 42.471778869628906 3.2944964170455933 44.25968933105469 3.322272479534149 46.105735778808594 3.955212116241455 C 47.45453643798828 4.4185404777526855 48.895118713378906 5.0355236530303955 50.1124267578125 5.712786793708801 C 50.69550323486328 6.037234842777252 51.140907287597656 6.722180724143982 51.87138366699219 6.884109258651733 C 52.21241760253906 6.401869535446167 52.73838806152344 6.2340312004089355 53.239410400390625 5.907810211181641 C 55.00397491455078 4.757763028144836 57.23992156982422 4.047995984554291 59.49372100830078 3.370141863822937 C 60.351226806640625 3.111883580684662 61.04210662841797 3.2111682295799255 61.93669128417969 2.9795040488243103 C 63.738563537597656 2.512629806995392 66.05496215820312 2.448803961277008 67.99553680419922 2.0037959814071655 C 68.51658630371094 2.0037959814071655 69.0378646850586 2.0037959814071655 69.55902862548828 2.0037959814071655 C 70.78572082519531 1.7378549575805664 72.4381332397461 2.113127291202545 73.85891723632812 1.8081815838813782 C 74.75395965576172 1.6161130666732788 76.48224639892578 1.6090213060379028 77.3768310546875 1.8081815838813782 C 78.79212188720703 2.123764932155609 80.45243072509766 1.7295812368392944 81.67660522460938 2.0037959814071655 C 82.19776916503906 2.0037959814071655 82.71904754638672 2.0037959814071655 83.2402114868164 2.0037959814071655 C 84.2469482421875 2.2348691821098328 85.44674682617188 2.129083752632141 86.56277465820312 2.3938428163528442 C 89.13449096679688 3.0037342309951782 91.84090423583984 3.317544639110565 94.0873794555664 4.150826513767242 C 96.76781463623047 5.144854962825775 99.4706802368164 6.163113594055176 100.9278564453125 8.347966849803925 C 101.77849578857422 9.623892784118652 101.61209869384766 11.869026005268097 101.61186981201172 14.009555757045746 C 101.61186981201172 17.9785777926445 101.61186981201172 21.94878178834915 101.61186981201172 25.91721284389496 C 101.61186981201172 35.742256224155426 101.61186981201172 45.57025450468063 101.61186981201172 55.3952978849411 C 101.61186981201172 61.088208734989166 101.74862670898438 67.04587864875793 101.51425170898438 72.57449704408646 C 100.95738220214844 73.01891404390335 100.68238067626953 73.63707917928696 99.85291290283203 73.84392219781876 C 99.23207092285156 73.99816799163818 98.5181884765625 73.57384431362152 98.09384155273438 73.45387536287308 C 96.92242431640625 73.1217445731163 95.61425018310547 73.12706339359283 94.47819519042969 72.86762315034866 C 93.20973205566406 72.57804292440414 91.84307861328125 72.73406165838242 90.66708374023438 72.47698533535004 C 90.17853546142578 72.47698533535004 89.68975830078125 72.47698533535004 89.20121002197266 72.47698533535004 C 88.3485107421875 72.29200857877731 87.20021057128906 72.5035794377327 86.17184448242188 72.28255289793015 C 84.29959106445312 71.87832254171371 81.80809783935547 71.99060875177383 79.72218322753906 71.98942679166794 C 77.532470703125 71.9876538515091 74.90845489501953 71.55387449264526 72.881591796875 71.98942679166794 C 72.02717590332031 72.17322158813477 70.87784576416016 71.92973780632019 70.14542388916016 72.08693850040436 C 69.2985610961914 72.08693850040436 68.45146942138672 72.08693850040436 67.60460662841797 72.08693850040436 C 66.4714126586914 72.33042228221893 64.88400268554688 72.238820374012 63.79338073730469 72.47698533535004 C 62.65354919433594 72.54199314117432 61.513145446777344 72.6070009469986 60.373199462890625 72.67259973287582 C 58.386505126953125 73.11938065290451 56.186607360839844 72.98641014099121 54.11888885498047 73.45387536287308 C 53.370445251464844 73.62230467796326 52.11308288574219 74.06553971767426 51.187255859375 73.84392219781876 C 48.682029724121094 73.24289548397064 45.65380859375 73.25294214487076 43.07637023925781 72.67259973287582 C 41.69346618652344 72.36056226491928 40.165794372558594 72.56208646297455 38.87432861328125 72.28255289793015 C 37.47368621826172 72.21695411205292 36.07281494140625 72.15194630622864 34.67228698730469 72.08693850040436 C 34.151123046875 72.08693850040436 33.629844665527344 72.08693850040436 33.108795166015625 72.08693850040436 C 31.814125061035156 71.80976885557175 29.341171264648438 71.76721829175949 28.02716064453125 71.98942679166794 C 27.325294494628906 72.10821378231049 26.120346069335938 71.83222609758377 25.38861083984375 71.98942679166794 C 23.141220092773438 72.02193069458008 20.89325714111328 72.05443459749222 18.64586639404297 72.08693850040436 C 17.64874267578125 72.30146425962448 16.38336944580078 72.0319773554802 15.225570678710938 72.28255289793015 C 12.581642150878906 72.85284864902496 9.499404907226562 72.65605229139328 7.0169525146484375 73.25826096534729 C 5.2515869140625 73.68613052368164 3.0727462768554688 74.27474665641785 2.1307830810546875 72.86762315034866 C 1.5154342651367188 71.94864916801453 1.8376998901367188 69.51026546955109 1.8376998901367188 68.08482158184052 C 1.8376998901367188 64.01828783750534 1.8376998901367188 59.95057213306427 1.8376998901367188 55.884038388729095 C 1.8376998901367188 40.528012692928314 1.8376998901367188 25.167850136756897 1.8376998901367188 9.812415421009064 C 2.1677474975585938 9.520471274852753 2.1856002807617188 8.929491221904755 2.423980712890625 8.543581247329712 C 2.75860595703125 8.00106155872345 3.384368896484375 7.264109432697296 3.8898544311523438 6.884109258651733 C 6.770332336425781 4.7193493247032166 10.343177795410156 3.8299243450164795 14.443824768066406 2.783889651298523 C 17.126663208007812 2.100125730037689 20.139892578125 2.416300058364868 22.945640563964844 1.8081815838813782 C 23.872154235839844 1.6072483658790588 25.45464324951172 2.162178635597229 26.17047119140625 1.7106698751449585 Z M 24.509132385253906 5.907810211181641 C 24.118431091308594 6.137110471725464 23.382003784179688 5.887716889381409 22.84790802001953 6.005912899971008 C 21.663330078125 6.265944123268127 20.3944091796875 6.0082768201828 19.134414672851562 6.297857046127319 C 14.304206848144531 7.411263465881348 9.044387817382812 7.514684975147247 6.0396270751953125 10.39807665348053 C 6.0396270751953125 24.64719671010971 6.0396270751953125 38.901044607162476 6.0396270751953125 53.150755643844604 C 6.0396270751953125 57.02226597070694 6.0396270751953125 60.89495825767517 6.0396270751953125 64.7664685845375 C 6.0396270751953125 65.59443163871765 5.85675048828125 68.75262904167175 6.0396270751953125 69.06112062931061 C 6.144569396972656 69.13440215587616 6.1320953369140625 69.11962765455246 6.33282470703125 69.15863233804703 C 7.037322998046875 68.69766789674759 8.222358703613281 68.97720146179199 9.166839599609375 68.7679945230484 C 10.71087646484375 68.42640805244446 12.6710205078125 68.52510172128677 14.248359680175781 68.18233329057693 C 14.867141723632812 68.18233329057693 15.48626708984375 68.18233329057693 16.10516357421875 68.18233329057693 C 17.19658660888672 67.94830518960953 18.641746520996094 68.25916069746017 19.916275024414062 67.9873098731041 C 21.90308380126953 67.56357717514038 24.489219665527344 67.79228645563126 26.756752014160156 67.79169547557831 C 35.05291748046875 67.79110449552536 42.37141418457031 68.46777665615082 49.526031494140625 69.35365575551987 C 49.94236755371094 68.08718550205231 49.62376403808594 65.32376277446747 49.62376403808594 63.789578557014465 C 49.62376403808594 59.6911318898201 49.62376403808594 55.59032130241394 49.62376403808594 51.491874635219574 C 49.62376403808594 37.86032873392105 49.62376403808594 24.224645972251892 49.62376403808594 10.59310007095337 C 49.545372009277344 10.47785896062851 49.54823303222656 10.428807616233826 49.526031494140625 10.202462255954742 C 43.471534729003906 6.345135450363159 34.449241638183594 5.982864677906036 24.509132385253906 5.907810211181641 Z M 53.8258056640625 69.35365575551987 C 55.62367248535156 69.24018758535385 57.773216247558594 68.96301794052124 59.49372100830078 68.57297110557556 C 60.845497131347656 68.26625245809555 62.34501647949219 68.45832097530365 63.59803009033203 68.18233329057693 C 64.15180969238281 68.18233329057693 64.7055892944336 68.18233329057693 65.2592544555664 68.18233329057693 C 66.7310791015625 67.86497700214386 68.72063446044922 68.1202803850174 70.2430419921875 67.79169547557831 C 72.81624603271484 67.79169547557831 75.39013671875 67.79169547557831 77.96322631835938 67.79169547557831 C 84.8570327758789 67.79110449552536 91.3700942993164 68.3998139500618 97.40982818603516 69.15863233804703 C 97.40982818603516 49.54104948043823 97.40982818603516 29.917556822299957 97.40982818603516 10.299973964691162 C 97.04670715332031 10.06712782382965 96.80329132080078 9.628620624542236 96.43273162841797 9.421777606010437 C 95.41535186767578 8.855027735233307 94.38320922851562 8.684825479984283 93.20790100097656 8.250455141067505 C 88.5312728881836 6.520065546035767 82.52804565429688 5.909583151340485 76.20426940917969 5.907810211181641 C 71.75606536865234 5.907219231128693 67.32445526123047 5.9397231340408325 63.695762634277344 6.884109258651733 C 63.03063201904297 7.057266414165497 62.59770202636719 6.893564939498901 61.93669128417969 7.079132676124573 C 58.95619201660156 7.915960431098938 55.77198791503906 8.5323526263237 53.8258056640625 10.39807665348053 C 53.8258056640625 30.047572433948517 53.8258056640625 49.70356899499893 53.8258056640625 69.35365575551987 Z M 15.909584045410156 23.477056205272675 C 21.642044067382812 23.477056205272675 27.376220703125 23.477056205272675 33.108795166015625 23.477056205272675 C 36.309478759765625 23.477056205272675 39.18389129638672 22.72237467765808 39.16741180419922 26.112827241420746 C 38.69042205810547 26.644709289073944 38.5584716796875 27.318426549434662 37.79938507080078 27.577275812625885 C 36.58711242675781 27.989779889583588 33.899925231933594 27.674787521362305 32.42466735839844 27.674787521362305 C 28.45093536376953 27.674787521362305 24.476173400878906 27.674787521362305 20.502670288085938 27.674787521362305 C 17.22130584716797 27.674787521362305 14.317367553710938 28.435378849506378 14.346092224121094 24.941504776477814 C 14.674423217773438 24.595190465450287 14.821365356445312 24.035532355308533 15.225570678710938 23.77018231153488 C 15.459259033203125 23.616527497768402 15.718467712402344 23.650213360786438 15.909584045410156 23.477056205272675 Z M 65.9433822631836 23.477056205272675 C 71.67584228515625 23.477056205272675 77.41001892089844 23.477056205272675 83.14236450195312 23.477056205272675 C 85.07721710205078 23.477056205272675 88.28785705566406 23.007227063179016 88.81039428710938 24.453946232795715 C 89.94141387939453 25.601629495620728 88.64823150634766 27.57845777273178 87.24678802490234 27.577275812625885 C 86.64688873291016 27.954912066459656 83.16387939453125 27.674787521362305 82.16526794433594 27.674787521362305 C 77.80072021484375 27.674787521362305 73.4349136352539 27.674787521362305 69.07036590576172 27.674787521362305 C 67.0511703491211 27.674787521362305 64.77104949951172 27.927726984024048 64.57524108886719 26.112827241420746 C 63.644493103027344 24.95391535758972 65.43995666503906 23.913199484348297 65.9433822631836 23.477056205272675 Z M 15.909584045410156 35.97155648469925 C 21.642044067382812 35.97155648469925 27.376220703125 35.97155648469925 33.108795166015625 35.97155648469925 C 36.31474304199219 35.97155648469925 39.18377685546875 35.208601236343384 39.16741180419922 38.60673654079437 C 38.687103271484375 39.14275544881821 38.55824279785156 39.80347114801407 37.79938507080078 40.07118511199951 C 36.618011474609375 40.48782604932785 33.877952575683594 40.16869682073593 32.42466735839844 40.16869682073593 C 28.45093536376953 40.16869682073593 24.476173400878906 40.16869682073593 20.502670288085938 40.16869682073593 C 17.22576904296875 40.16869682073593 14.317253112792969 40.92160540819168 14.346092224121094 37.43541407585144 C 14.646614074707031 37.11923974752426 14.769180297851562 36.61867964267731 15.127838134765625 36.362194299697876 C 15.372283935546875 36.18726420402527 15.695808410644531 36.16657990217209 15.909584045410156 35.97155648469925 Z M 66.0411148071289 35.97155648469925 C 71.7734603881836 35.97155648469925 77.50763702392578 35.97155648469925 83.2402114868164 35.97155648469925 C 86.21487426757812 35.97155648469925 89.18427276611328 35.376439571380615 89.20121002197266 38.41171312332153 C 88.72113037109375 39.04110687971115 88.62488555908203 39.757374703884125 87.83306884765625 40.07118511199951 C 86.80367279052734 40.47896134853363 84.06578826904297 40.16869682073593 82.75154876708984 40.16869682073593 C 78.7779312133789 40.16869682073593 74.80305480957031 40.16869682073593 70.82943725585938 40.16869682073593 C 68.48282623291016 40.16869682073593 64.80572509765625 40.74549335241318 64.57524108886719 38.60673654079437 C 64.23649597167969 38.18832266330719 64.49032592773438 37.66944217681885 64.57524108886719 37.14287894964218 C 64.80572509765625 36.964402973651886 64.8520736694336 36.63759100437164 65.06390380859375 36.459706008434296 C 65.33627319335938 36.23099672794342 65.76107788085938 36.19317400455475 66.0411148071289 35.97155648469925 Z M 15.909584045410156 48.465465784072876 C 21.15349578857422 48.465465784072876 26.399009704589844 48.465465784072876 31.642921447753906 48.465465784072876 C 33.629730224609375 48.465465784072876 35.61711120605469 48.465465784072876 37.603919982910156 48.465465784072876 C 38.42938232421875 48.722542107105255 38.64521789550781 49.383848786354065 39.16741180419922 49.929914355278015 C 39.179771423339844 51.35122138261795 38.805320739746094 52.21109735965729 37.79938507080078 52.56509441137314 C 36.55827331542969 53.00182867050171 33.65502166748047 52.66260612010956 32.1314697265625 52.66260612010956 C 28.353317260742188 52.66260612010956 24.57390594482422 52.66260612010956 20.795753479003906 52.66260612010956 C 19.400833129882812 52.66260612010956 16.852806091308594 52.958687126636505 15.714118957519531 52.56509441137314 C 15.018089294433594 52.323974549770355 14.800880432128906 51.6768513917923 14.346092224121094 51.19874852895737 C 14.303176879882812 49.088358759880066 14.877899169921875 49.37616604566574 15.909584045410156 48.465465784072876 Z M 66.0411148071289 48.465465784072876 C 71.7734603881836 48.465465784072876 77.50763702392578 48.465465784072876 83.2402114868164 48.465465784072876 C 86.21979522705078 48.465465784072876 89.18404388427734 47.86443907022476 89.20121002197266 50.90562242269516 C 88.72948455810547 51.524378538131714 88.63335418701172 52.28083300590515 87.83306884765625 52.56509441137314 C 86.67744445800781 52.97523456811905 83.9817886352539 52.66260612010956 82.55608367919922 52.66260612010956 C 78.6475830078125 52.66260612010956 74.7379379272461 52.66260612010956 70.82943725585938 52.66260612010956 C 68.48282623291016 52.66260612010956 64.80561065673828 53.239402651786804 64.57524108886719 51.10123682022095 C 64.23649597167969 50.68223196268082 64.49032592773438 50.16394245624542 64.57524108886719 49.63678824901581 C 64.78947448730469 49.472495794296265 64.78363800048828 49.23492181301117 64.96605682373047 49.05112701654434 C 65.242431640625 48.772775411605835 65.73395538330078 48.71426838636398 66.0411148071289 48.465465784072876 Z"/></g></svg>