<svg version="1.1" xmlns="http://www.w3.org/2000/svg" xmlns:xlink="http://www.w3.org/1999/xlink" width="18" height="18"><defs/><g><path fill="#7eb151" stroke="none" paint-order="stroke fill markers" fill-rule="evenodd" d=" M 3.8259811401367188 1.2205764651298523 C 4.870025634765625 1.2105298042297363 5.179931640625 1.7347291111946106 5.6878204345703125 2.242380976676941 C 6.217109680175781 2.772490084171295 6.746513366699219 3.3014172315597534 7.2758026123046875 3.8309353590011597 C 7.572547912597656 4.127607345581055 7.744781494140625 4.26471471786499 7.8782196044921875 4.743408560752869 C 7.905570983886719 4.841511249542236 7.951347351074219 5.068447589874268 7.914726257324219 5.217965543270111 C 7.7928466796875 5.715570747852325 7.50811767578125 5.953144729137421 7.202789306640625 6.258681416511536 C 7.026435852050781 6.441294252872467 6.849967956542969 6.623907089233398 6.673500061035156 6.805928945541382 C 6.554939270019531 6.924715936183929 6.19708251953125 7.191838920116425 6.162406921386719 7.353767454624176 C 6.242973327636719 7.438868582248688 6.278907775878906 7.564747333526611 6.344940185546875 7.664031982421875 C 6.478034973144531 7.863783240318298 6.63836669921875 8.052896857261658 6.78302001953125 8.247920274734497 C 6.9420928955078125 8.463037014007568 7.1705169677734375 8.638558089733124 7.330619812011719 8.850719928741455 C 7.738258361816406 9.38969373703003 8.32293701171875 9.939896166324615 8.863899230957031 10.347672402858734 C 8.942291259765625 10.406179428100586 9.004318237304688 10.507237017154694 9.082939147949219 10.566335022449493 C 9.302322387695312 10.730036497116089 9.508888244628906 10.886646211147308 9.740058898925781 11.040892004966736 C 9.857589721679688 11.118901371955872 9.967681884765625 11.24064326286316 10.141632080078125 11.259554624557495 C 10.300361633300781 11.01902574300766 10.577308654785156 10.82400232553482 10.780441284179688 10.621296167373657 C 11.202613830566406 10.198745429515839 11.5465087890625 9.673364162445068 12.222396850585938 9.507889747619629 C 12.478973388671875 9.444654881954193 12.772285461425781 9.547485411167145 12.916023254394531 9.61663007736206 C 13.5277099609375 9.912711083889008 13.921043395996094 10.457594692707062 14.376289367675781 10.91264933347702 C 14.759552001953125 11.296195387840271 15.142929077148438 11.679741442203522 15.526191711425781 12.063287496566772 C 15.703231811523438 12.239990532398224 15.950309753417969 12.404282987117767 16.05559539794922 12.647175788879395 C 16.119796752929688 12.795511782169342 16.162826538085938 12.981670498847961 16.201622009277344 13.139462172985077 C 16.247398376464844 13.326802849769592 16.213180541992188 13.657160699367523 16.165115356445312 13.79663199186325 C 16.009933471679688 14.248140752315521 15.478584289550781 14.62932288646698 15.161125183105469 14.946679174900055 C 14.886581420898438 15.221484899520874 14.653350830078125 15.532340407371521 14.284965515136719 15.713771283626556 C 13.994514465332031 15.856788456439972 13.635055541992188 15.920614302158356 13.299400329589844 16.005715429782867 C 12.78155517578125 16.136913001537323 11.9530029296875 16.092589497566223 11.474067687988281 15.969074666500092 C 11.370613098144531 15.956664085388184 11.267158508300781 15.944844484329224 11.163703918457031 15.932433903217316 C 10.832626342773438 15.837286114692688 10.472824096679688 15.776415169239044 10.159828186035156 15.640489757061005 C 9.684211730957031 15.433646738529205 9.214202880859375 15.22857666015625 8.772575378417969 14.98331993818283 C 8.523094177246094 14.845030605793 8.274757385253906 14.648234248161316 8.024246215820312 14.508762955665588 C 5.8745880126953125 13.310846388339996 3.965484619140625 11.315106749534607 2.7674026489257812 9.160393476486206 C 2.6389999389648438 8.930502235889435 2.4680252075195312 8.694701194763184 2.3293228149414062 8.467173874378204 C 2.1453018188476562 8.165183067321777 2.0342941284179688 7.838371098041534 1.8912429809570312 7.4997395277023315 C 1.372711181640625 6.272864937782288 1.0583419799804688 4.368727207183838 1.7452163696289062 3.0461138486862183 C 1.9047470092773438 2.7382132411003113 2.2203750610351562 2.516004741191864 2.4570388793945312 2.279021739959717 C 2.7186508178710938 2.0118987560272217 2.980377197265625 1.7435938119888306 3.2419891357421875 1.4764708280563354 C 3.33056640625 1.4114630222320557 3.45416259765625 1.33640855550766 3.5522384643554688 1.293857991695404 C 3.6429901123046875 1.2542623281478882 3.75811767578125 1.278492510318756 3.8259811401367188 1.2205764651298523 Z M 3.9355010986328125 2.0237183570861816 C 3.87164306640625 2.0727697014808655 3.7803192138671875 2.0863622426986694 3.716461181640625 2.1336406469345093 C 3.4366531372070312 2.4190840125083923 3.1567306518554688 2.7051183581352234 2.876922607421875 2.9911527037620544 C 2.7354736328125 3.132396936416626 2.523529052734375 3.2748231291770935 2.4388427734375 3.465709686279297 C 1.72930908203125 5.063719749450684 2.4556655883789062 7.140423655509949 3.1324691772460938 8.247920274734497 C 3.653289794921875 9.100704491138458 4.191276550292969 9.9150750041008 4.775154113769531 10.693986713886261 C 4.8675079345703125 10.816910564899445 5.011131286621094 10.917968153953552 5.1037139892578125 11.040892004966736 C 5.267822265625 11.257781684398651 5.452873229980469 11.478808224201202 5.669624328613281 11.643100678920746 C 5.736457824707031 11.693924963474274 5.769645690917969 11.79261863231659 5.8338470458984375 11.843442916870117 C 6.102783203125 12.05796867609024 6.3277740478515625 12.33277440071106 6.600486755371094 12.537253499031067 C 6.9196624755859375 12.777191400527954 7.2249908447265625 13.038995563983917 7.549659729003906 13.267704844474792 C 8.165122985839844 13.700893223285675 8.824989318847656 14.067891836166382 9.502708435058594 14.436072409152985 C 10.370742797851562 14.907674491405487 11.887313842773438 15.541796088218689 13.281089782714844 15.165932774543762 C 13.498756408691406 15.10742574930191 13.676139831542969 15.10447084903717 13.865196228027344 15.019960701465607 C 14.114791870117188 14.908265471458435 14.269058227539062 14.707332253456116 14.449302673339844 14.527083337306976 C 14.741355895996094 14.241048991680145 15.033409118652344 13.955014646053314 15.325462341308594 13.668980300426483 C 15.356819152832031 13.62583875656128 15.363113403320312 13.57856035232544 15.398475646972656 13.541328608989716 C 15.403053283691406 12.850472927093506 15.079299926757812 12.765962779521942 14.741355895996094 12.427922189235687 C 14.625770568847656 12.312681078910828 14.52838134765625 12.178528606891632 14.412796020507812 12.063287496566772 C 14.053794860839844 11.70397162437439 13.676597595214844 11.362976133823395 13.317596435546875 11.00425124168396 C 13.148109436035156 10.834639966487885 12.791168212890625 10.339398682117462 12.532760620117188 10.31044065952301 C 12.303077697753906 10.170969367027283 11.951057434082031 10.58229148387909 11.857330322265625 10.675666332244873 C 11.492378234863281 11.034391224384308 11.127197265625 11.39370709657669 10.762130737304688 11.752431988716125 C 10.656845092773438 11.858217418193817 10.455314636230469 12.140114903450012 10.305854797363281 12.172027826309204 C 10.202972412109375 12.097564339637756 10.026275634765625 12.117657661437988 9.904281616210938 12.063287496566772 C 9.669334411621094 11.958684027194977 9.418708801269531 11.80739313364029 9.210655212402344 11.661421060562134 C 8.163406372070312 10.925650894641876 7.0707244873046875 9.907983243465424 6.308433532714844 8.886769711971283 C 5.914527893066406 8.35902452468872 5.360404968261719 7.878557741641998 5.2497406005859375 7.080143690109253 C 5.4893798828125 6.9223520159721375 5.719291687011719 6.6103145480155945 5.9251708984375 6.404653489589691 C 6.275703430175781 6.054202318191528 6.638710021972656 5.720889568328857 6.965553283691406 5.345617234706879 C 6.977684020996094 5.345617234706879 6.98992919921875 5.345617234706879 7.0020599365234375 5.345617234706879 C 7.1087188720703125 5.220329463481903 7.12542724609375 5.031806826591492 7.111579895019531 4.83441948890686 C 7.0579071044921875 4.7918689250946045 7.043601989746094 4.726270139217377 7.0020599365234375 4.670718014240265 C 6.881324768066406 4.507607519626617 6.6573638916015625 4.326176643371582 6.50927734375 4.1778406500816345 C 6.022560119628906 3.703283667564392 5.535728454589844 3.2281357049942017 5.04901123046875 2.7535787224769592 C 4.7457427978515625 2.4504059553146362 4.538719177246094 2.0249003171920776 3.9355010986328125 2.0237183570861816 Z"/></g></svg>